<?xml version="1.0" ?><svg viewBox="0 0 60 60" xmlns="http://www.w3.org/2000/svg"><title/><g id="colour"><path d="M46.0384,25a10.66483,10.66483,0,0,1-14.08662,1.49034l-1.48006,3.7156a.49882.49882,0,0,1-.46964.31643.5127.5127,0,0,1-.47973-.31643l-1.48006-3.7156A10.66485,10.66485,0,0,1,13.95566,25c-1.67395,8.29883.06131,16.44459,4.84864,22.48751C22.03,51.56035,26.21507,54,30.00207,54c3.77691,0,7.962-2.43965,11.19777-6.51249C45.98731,41.44459,47.72268,33.29883,46.0384,25Z" fill="#aaa"/><path d="M31.541,24.715l-1.47409,3.70009-1.484-3.70009a1.48158,1.48158,0,0,1,2.95809,0Z" fill="#ff9f00"/><path d="M13.95569,27.127a10.39238,10.39238,0,0,0,7.88025,3.70186,10.20043,10.20043,0,0,0,6.2063-2.11694l1.4801,3.95158A.513.513,0,0,0,30.00208,33a.49976.49976,0,0,0,.4696-.3365l1.4801-3.95158a10.23016,10.23016,0,0,0,6.21643,2.11694A10.38743,10.38743,0,0,0,46.03833,27.127a35.13171,35.13171,0,0,1,.60217,5.47685A34.65551,34.65551,0,0,0,46.03833,25a10.38743,10.38743,0,0,1-7.87012,3.70186,10.23016,10.23016,0,0,1-6.21643-2.11694l-1.4801,3.95158a.49976.49976,0,0,1-.4696.3365.513.513,0,0,1-.47974-.3365l-1.4801-3.95158a10.20043,10.20043,0,0,1-6.2063,2.11694A10.39238,10.39238,0,0,1,13.95569,25a34.74746,34.74746,0,0,0-.59631,7.5738A35.25208,35.25208,0,0,1,13.95569,27.127Z" fill="#999"/><path d="M22.15222,10.41425a9.02971,9.02971,0,0,1,7.519,4.22116.27642.27642,0,0,0,.11853.1v.011a.48571.48571,0,0,0,.54419,0l.01-.011a.47759.47759,0,0,0,.11877-.1,9.00332,9.00332,0,0,1,7.5188-4.22116c4.88391,0,8.91736,4.21759,9.35486,9.58575.02612-.31894.0437-.64056.0437-.967,0-5.82074-4.22437-10.55286-9.39856-10.55286a9.00332,9.00332,0,0,0-7.5188,4.22116.47759.47759,0,0,1-.11877.1l-.01.011a.48571.48571,0,0,1-.54419,0v-.011a.27642.27642,0,0,1-.11853-.1,9.02971,9.02971,0,0,0-7.519-4.22116c-5.18408,0-9.39856,4.73212-9.39856,10.55286,0,.32648.01758.6481.04346.967C13.23389,14.63184,17.25891,10.41425,22.15222,10.41425Z" fill="#aaa"/><path d="M49.626,3.7226a13.8341,13.8341,0,0,1,.48828,2.70435A12.33384,12.33384,0,0,0,49.626,2c-1.7511,1.54333-4.40247,2.04785-7.19238,2.58215-3.79907.73206-7.70679,1.48395-10.27905,4.70917a10.26383,10.26383,0,0,1,5.26953-1.77948,37.29219,37.29219,0,0,1,5.00952-1.20709C45.22351,5.77045,47.87488,5.26593,49.626,3.7226Z" fill="#b7b7b7"/><path d="M34.8479,5.82184a15.07273,15.07273,0,0,1,2.01587-.88354,13.46619,13.46619,0,0,0-6.79687-1.40485,13.49859,13.49859,0,0,0-6.8064,1.40485,15.16,15.16,0,0,1,2.01733.88354,15.907,15.907,0,0,1,4.78906-.5658A15.84866,15.84866,0,0,1,34.8479,5.82184Z" fill="#aaa"/><path d="M17.4,6.30475a37.27662,37.27662,0,0,1,5.01758,1.207,10.29908,10.29908,0,0,1,5.27161,1.77954C25.11682,6.0661,21.209,5.31421,17.4,4.58215,14.61011,4.04785,11.95874,3.54333,10.21753,2a12.30918,12.30918,0,0,0-.49316,4.43909,13.81465,13.81465,0,0,1,.49316-2.71649C11.95874,5.26593,14.61011,5.77045,17.4,6.30475Z" fill="#b7b7b7"/><path d="M13.12476,26.889c.09106-.6286.19531-1.25818.32593-1.889C9.86914,26.3158,7.752,28.45282,7.16821,31.37128a9.81489,9.81489,0,0,0-.12012,2.74725,8.8515,8.8515,0,0,1,.12012-.9942C7.7334,30.29913,9.74854,28.21356,13.12476,26.889Z" fill="#aaa"/><path d="M53.05,33.12433a8.83333,8.83333,0,0,1,.12061.99982A9.80292,9.80292,0,0,0,53.05,31.37128C52.4762,28.45282,50.34912,26.3158,46.77759,25c.12976.63068.23328,1.26007.32373,1.88843C50.47,28.213,52.49438,30.29871,53.05,33.12433Z" fill="#aaa"/><path d="M18.6842,48.18008l-1.73133,2.99764C12.75811,47.43808,5.8328,38.11854,7.16825,31.37129,7.752,28.45282,9.86922,26.31583,13.4506,25c-1.73133,8.36976.0099,16.61091,4.85753,22.725C18.43686,47.88323,18.55546,48.02175,18.6842,48.18008Z" fill="#999"/><path d="M43.18638,51.247,41,48.8033c.30675-.34624.61338-.70239.91011-1.07834,4.84787-6.11406,6.589-14.3552,4.86755-22.725,3.57147,1.31583,5.69856,3.45282,6.27232,6.37129C54.39558,38.15815,47.37123,47.56664,43.18638,51.247Z" fill="#999"/><path d="M46.78673,12.39782a10.39168,10.39168,0,0,0-8.80519-4.907,10.27463,10.27463,0,0,0-5.82705,1.80059c2.57224-3.22523,6.48-3.97713,10.279-4.70923C45.22351,4.04786,47.87485,3.54335,49.626,2,51.37712,8.213,48.38932,11.26012,46.78673,12.39782Z" fill="#aaa"/><path d="M36.86371,4.93828a11.38643,11.38643,0,0,0-6.79682,5.79747,11.4021,11.4021,0,0,0-6.80648-5.79747,13.49932,13.49932,0,0,1,6.80648-1.40483A13.46621,13.46621,0,0,1,36.86371,4.93828Z" fill="#999"/><path d="M27.68919,9.29136A10.35622,10.35622,0,0,0,13.047,12.39782C11.44421,11.26012,8.45653,8.213,10.21745,2,11.95868,3.54335,14.61014,4.04786,17.4,4.58214,21.209,5.31423,25.11683,6.06614,27.68919,9.29136Z" fill="#aaa"/><path d="M40,34a.99974.99974,0,0,0-1,1,1,1,0,0,1-2,0,1,1,0,0,0-2,0,1,1,0,0,1-2,0,1,1,0,0,0-2,0,1,1,0,0,1-2,0,1,1,0,0,0-2,0,1,1,0,0,1-2,0,1,1,0,0,0-2,0,1,1,0,0,1-2,0,1,1,0,0,0-2,0,2.99863,2.99863,0,0,0,5,2.23438,2.99506,2.99506,0,0,0,4,0,2.99506,2.99506,0,0,0,4,0,2.99506,2.99506,0,0,0,4,0A2.99863,2.99863,0,0,0,41,35,.99974.99974,0,0,0,40,34Z" fill="#999"/><path d="M38,40a.99974.99974,0,0,0-1,1,1,1,0,0,1-2,0,1,1,0,0,0-2,0,1,1,0,0,1-2,0,1,1,0,0,0-2,0,1,1,0,0,1-2,0,1,1,0,0,0-2,0,1,1,0,0,1-2,0,1,1,0,0,0-2,0,2.99863,2.99863,0,0,0,5,2.23438,2.99506,2.99506,0,0,0,4,0,2.99506,2.99506,0,0,0,4,0A2.99863,2.99863,0,0,0,39,41,.99974.99974,0,0,0,38,40Z" fill="#999"/><path d="M36,46a.99974.99974,0,0,0-1,1,1,1,0,0,1-2,0,1,1,0,0,0-2,0,1,1,0,0,1-2,0,1,1,0,0,0-2,0,1,1,0,0,1-2,0,1,1,0,0,0-2,0,2.99863,2.99863,0,0,0,5,2.23438,2.99506,2.99506,0,0,0,4,0A2.99863,2.99863,0,0,0,37,47,.99974.99974,0,0,0,36,46Z" fill="#999"/><path d="M37.98154,8.48011a9.30164,9.30164,0,0,0-7.51877,3.75945.4666.4666,0,0,1-.11884.08907l-.0099.00984a.53581.53581,0,0,1-.54418,0v-.00984a.27065.27065,0,0,1-.11859-.08907A9.39868,9.39868,0,1,0,27.7915,25.39764l-.16823-.4056a.62068.62068,0,0,1-.02971-.188,2.47333,2.47333,0,0,1,4.94665,0,.64183.64183,0,0,1-.03949.188l-.15833.4056a9.315,9.315,0,0,0,5.63914,1.87975,9.39864,9.39864,0,1,0,0-18.79729ZM22.15224,22.33074a4.452,4.452,0,1,1,4.452-4.452A4.45872,4.45872,0,0,1,22.15224,22.33074Zm15.8293,0a4.452,4.452,0,1,1,4.452-4.452A4.45872,4.45872,0,0,1,37.98154,22.33074Z" fill="#999"/><circle cx="22" cy="18" fill="#fbc12e" r="4"/><circle cx="38" cy="18" fill="#fbc12e" r="4"/></g><g data-name="Layer 1" id="Layer_1"><path d="M22,13.00036a5,5,0,1,0,5,5A5.00589,5.00589,0,0,0,22,13.00036Zm0,8a3,3,0,1,1,3-3A3.00328,3.00328,0,0,1,22,21.00036Z"/><circle cx="22" cy="18.00036" r="1"/><path d="M38,23.00036a5,5,0,1,0-5-5A5.00589,5.00589,0,0,0,38,23.00036Zm0-8a3,3,0,1,1-3,3A3.00328,3.00328,0,0,1,38,15.00036Z"/><circle cx="38" cy="18.00036" r="1"/><path d="M40.44141,49.96526,42.168,52.555a.999.999,0,0,0,.68848.43506A1.01385,1.01385,0,0,0,43,53.00036a1.002,1.002,0,0,0,.64063-.23193c4.542-3.78564,12.3877-14.08008,10.84668-21.8457-.67871-3.41736-3.03223-5.90674-6.96851-7.43408A10.8999,10.8999,0,0,0,48.022,13.49c3.60815-2.72211,4.70972-7.4566,2.92627-12.806a1.00007,1.00007,0,0,0-1.7168-.32373c-1.37207,1.64648-3.9834,2.147-7.00781,2.72607-1.2771.24457-2.63892.50714-3.99756.88837A14.555,14.555,0,0,0,30,2.00036a14.555,14.555,0,0,0-8.22607,1.9743c-1.35864-.38123-2.72046-.6438-3.99756-.88837C14.752,2.50719,12.14063,2.0067,10.76856.36022a1.00007,1.00007,0,0,0-1.7168.32373C7.26831,6.03338,8.36987,10.76787,11.978,13.49a10.8999,10.8999,0,0,0,.50317,9.99866C8.54492,25.016,6.19141,27.50536,5.5127,30.92272c-1.541,7.76563,6.30469,18.06006,10.84668,21.8457A1.002,1.002,0,0,0,17,53.00036a1.01385,1.01385,0,0,0,.14355-.01025A.999.999,0,0,0,17.832,52.555l1.72656-2.58978A19.32385,19.32385,0,0,0,23.8457,53.257c-.32153.6355-.90112.76184-2.13574.93475-1.8418.25732-4.36426.60986-5.6582,4.49219a.99964.99964,0,1,0,1.89648.63281c.76538-2.29529,1.92773-2.78882,3.29028-3.02972l-1.13306,2.26605a1.00012,1.00012,0,0,0,1.78906.89453l1.8186-3.63715a3.20914,3.20914,0,0,0,1.94177-1.69611A11.86007,11.86007,0,0,0,30,55.00036a11.86007,11.86007,0,0,0,4.34509-.886,3.20914,3.20914,0,0,0,1.94177,1.69611l1.8186,3.63715a1.00012,1.00012,0,1,0,1.78906-.89453L38.76148,56.287c1.36255.24091,2.5249.73444,3.29028,3.02972a.99964.99964,0,1,0,1.89648-.63281c-1.29395-3.88232-3.81641-4.23486-5.6582-4.49219-1.23462-.17291-1.81421-.29926-2.13574-.93475A19.32385,19.32385,0,0,0,40.44141,49.96526Zm12.084-18.65289c1.27246,6.41211-5.14453,15.26758-9.3291,19.1792L41.832,48.44567l-.02954.01965c.11475-.13824.23145-.27313.344-.41516C46.96216,41.97,48.81323,33.86358,47.342,25.57262,50.272,26.8485,52.02112,28.76964,52.52539,31.31237ZM30,22.00036a3.00328,3.00328,0,0,0-3,3,1.0076,1.0076,0,0,0,.07129.37158l.01758.04407A8.91244,8.91244,0,0,1,22,27.00036a9,9,0,1,1,7.2002-14.3999l.01074.00854a.99189.99189,0,0,0,1.57813,0l.01074-.00854A9.00657,9.00657,0,1,1,32.91113,25.416l.01758-.04407A1.0076,1.0076,0,0,0,33,25.00036,3.00328,3.00328,0,0,0,30,22.00036Zm.9873,2.83936L30,27.308l-.9873-2.46826a1.00034,1.00034,0,0,1,1.97461,0ZM42.59961,5.05065c2.582-.49463,5.0498-.96729,6.874-2.2334.86035,3.77722-.019,6.92572-2.4574,8.90009A10.94441,10.94441,0,0,0,35.07446,7.40313,22.82591,22.82591,0,0,1,42.59961,5.05065ZM30,4.00036a14.12069,14.12069,0,0,1,5.64331.881A11.85425,11.85425,0,0,0,30,9.73864a11.85425,11.85425,0,0,0-5.64331-4.8573A14.12069,14.12069,0,0,1,30,4.00036ZM10.52637,2.81725c1.82422,1.26611,4.292,1.73877,6.874,2.2334a22.82591,22.82591,0,0,1,7.52515,2.35248,10.94441,10.94441,0,0,0-11.94177,4.31421C10.54541,9.743,9.666,6.59447,10.52637,2.81725ZM18.168,48.44567l-1.36426,2.0459c-4.18457-3.91162-10.60156-12.76709-9.3291-19.1792C7.97888,28.7697,9.728,26.8485,12.658,25.57262c-1.47119,8.291.37988,16.39734,5.19556,22.47754.11255.142.22925.27692.344.41516ZM30,53.00036c-3.55273,0-7.50781-2.31494-10.57812-6.19189a25.98718,25.98718,0,0,1-4.82422-20.69519,10.964,10.964,0,0,0,13.25171,1.204l1.22192,3.05469a1.00046,1.00046,0,0,0,1.85742,0l1.22192-3.05469a10.964,10.964,0,0,0,13.25171-1.204,25.98718,25.98718,0,0,1-4.82422,20.69519C37.50781,50.68541,33.55274,53.00036,30,53.00036Z"/><path d="M40,33.00036a.99974.99974,0,0,0-1,1,1,1,0,1,1-2,0,1,1,0,0,0-2,0,1,1,0,1,1-2,0,1,1,0,0,0-2,0,1,1,0,0,1-2,0,1,1,0,0,0-2,0,1,1,0,0,1-2,0,1,1,0,0,0-2,0,1,1,0,0,1-2,0,1,1,0,0,0-2,0,2.99863,2.99863,0,0,0,5,2.23438,2.99506,2.99506,0,0,0,4,0,2.99506,2.99506,0,0,0,4,0,2.99506,2.99506,0,0,0,4,0,2.99863,2.99863,0,0,0,5-2.23437A.99974.99974,0,0,0,40,33.00036Z"/><path d="M38,39.00036a.99974.99974,0,0,0-1,1,1,1,0,1,1-2,0,1,1,0,0,0-2,0,1,1,0,0,1-2,0,1,1,0,0,0-2,0,1,1,0,0,1-2,0,1,1,0,0,0-2,0,1,1,0,0,1-2,0,1,1,0,0,0-2,0,2.99863,2.99863,0,0,0,5,2.23438,2.99506,2.99506,0,0,0,4,0,2.99506,2.99506,0,0,0,4,0,2.99863,2.99863,0,0,0,5-2.23437A.99974.99974,0,0,0,38,39.00036Z"/><path d="M36,45.00036a.99974.99974,0,0,0-1,1,1,1,0,1,1-2,0,1,1,0,0,0-2,0,1,1,0,0,1-2,0,1,1,0,0,0-2,0,1,1,0,0,1-2,0,1,1,0,0,0-2,0,2.99863,2.99863,0,0,0,5,2.23438,2.99506,2.99506,0,0,0,4,0,2.99863,2.99863,0,0,0,5-2.23437A.99974.99974,0,0,0,36,45.00036Z"/></g></svg>