<?xml version='1.0' encoding='utf-8'?>
<svg xmlns="http://www.w3.org/2000/svg" width="91.44mm" height="91.44mm" version="1.1" style="shape-rendering:geometricPrecision; text-rendering:geometricPrecision; image-rendering:optimizeQuality; fill-rule:evenodd; clip-rule:evenodd" viewBox="0 0 9144 9144"> <defs> <style type="text/css">  .fil0 {fill:#F0F0F0} .fil1 {fill:#011627;fill-rule:nonzero}  </style> </defs> <g id="Layer_x0020_1"> <metadata id="CorelCorpID_0Corel-Layer"/> <g id="_2744503357600"> <polygon class="fil0" points="0,0 9144,0 9144,9144 0,9144 "/> <path class="fil1" d="M4166 4115l-458 0 0 508 458 1c46,0 84,37 84,84l1 1812 507 0 0 -1812c0,-47 38,-85 85,-85l593 0 0 -508 -593 0c-47,0 -85,-38 -85,-85 0,-218 0,-377 14,-500 15,-137 48,-228 116,-291 2,-1 4,-3 6,-5 59,-52 137,-78 245,-90 80,-9 177,-11 297,-11l0 -508c-294,0 -520,2 -689,22 -170,21 -281,60 -350,136 -71,79 -107,203 -126,394 -21,203 -21,482 -21,853 0,47 -38,85 -84,85zm-542 -170l457 0c0,-331 2,-585 22,-784 23,-228 71,-383 169,-491 100,-111 243,-165 455,-191 196,-24 452,-24 793,-24 47,0 85,38 85,85l0 677c0,47 -38,85 -85,85 -156,0 -276,0 -363,10 -72,8 -121,22 -151,48l-3 3c-35,32 -53,90 -63,186 -11,95 -12,225 -12,396l592 0c47,0 85,38 85,85l0 678c0,46 -38,84 -85,84l-592 0 0 1812 -1 0c0,47 -38,85 -84,85l-677 -1c-46,0 -84,-37 -84,-84l-1 -1812 -457 0c-47,0 -85,-38 -85,-84l0 -678c0,-47 38,-85 85,-85z"/> </g> </g> </svg>