<?xml version='1.0' encoding='utf-8'?>
<svg xmlns="http://www.w3.org/2000/svg" width="3000" height="3000" viewBox="0 0 793.74998 793.75002" version="1.1" id="svg8"> <defs id="defs2"/> <metadata id="metadata5"> </metadata> <g id="layer1" transform="translate(0,496.75002)"> <rect style="opacity:1;fill:#000000;fill-opacity:1;fill-rule:nonzero;stroke:none;stroke-width:10.58333302;stroke-linecap:butt;stroke-linejoin:miter;stroke-miterlimit:0;stroke-dasharray:none;stroke-dashoffset:9.99999905;stroke-opacity:0.59693879;paint-order:fill markers stroke" id="rect881" width="727.2262" height="727.2262" x="33.261906" y="-463.48813" ry="63.718868"/> <g id="g888" transform="matrix(8.0428516,0,0,8.0428516,815.8692,-5005.0376)" style="stroke-width:0.124334"> <path id="path826" d="m -52.246349,577.63298 c 0.02371,0.53644 0.06154,1.06942 0.116789,1.59731 v 16.04243 7.58248 16.50339 1.59525 c -0.403709,4.59531 -4.264379,8.18296 -9.193236,8.18296 -5.210881,0 -9.232511,-4.00902 -9.232511,-8.98033 0,-4.97131 4.02163,-8.97877 9.232511,-8.97877 1.004385,0 1.96328,0.15137 2.858738,0.42735 v -10.80243 c -0.934751,-0.13621 -1.888923,-0.20878 -2.858738,-0.20878 -10.831181,0 -19.816881,8.77054 -19.816881,19.56263 0,10.79209 8.9857,19.56212 19.816881,19.56212 10.389407,0 19.073156,-8.07074 19.764685,-18.25368 h 0.01241 v -0.16277 c 0.02252,-0.37941 0.03721,-0.76081 0.03721,-1.14567 0,-0.38484 -0.01469,-0.76629 -0.03721,-1.14568 v -21.19352 c 4.323715,3.27248 9.654128,5.29876 15.421282,5.5304 V 592.7478 c -8.049752,-0.50681 -14.412563,-6.48075 -15.421282,-14.15055 v -0.96427 z" style="color:#000000;font-style:normal;font-variant:normal;font-weight:normal;font-stretch:normal;font-size:medium;line-height:normal;font-family:sans-serif;font-variant-ligatures:normal;font-variant-position:normal;font-variant-caps:normal;font-variant-numeric:normal;font-variant-alternates:normal;font-feature-settings:normal;text-indent:0;text-align:start;text-decoration:none;text-decoration-line:none;text-decoration-style:solid;text-decoration-color:#000000;letter-spacing:normal;word-spacing:normal;text-transform:none;writing-mode:lr-tb;direction:ltr;text-orientation:mixed;dominant-baseline:auto;baseline-shift:baseline;text-anchor:start;white-space:normal;shape-padding:0;clip-rule:nonzero;display:inline;overflow:visible;visibility:visible;opacity:1;isolation:auto;mix-blend-mode:normal;color-interpolation:sRGB;color-interpolation-filters:linearRGB;solid-color:#000000;solid-opacity:1;vector-effect:none;fill:#25f4ee;fill-opacity:1;fill-rule:nonzero;stroke:none;stroke-width:1.31586814;stroke-linecap:round;stroke-linejoin:round;stroke-miterlimit:0;stroke-dasharray:none;stroke-dashoffset:9.99999905;stroke-opacity:1;paint-order:fill markers stroke;color-rendering:auto;image-rendering:auto;shape-rendering:auto;text-rendering:auto;enable-background:accumulate"/> <path transform="matrix(0.26458333,0,0,0.26458333,0,-496.75002)" id="path879" d="m -127.77344,4108.6133 c -9.38916,-9.3346 -15.82975,-21.5073 -17.63281,-35.2168 v -3.6445 h -10.40234 c 0.38476,1.6977 0.61382,3.4546 1.13671,5.0957 1.08187,3.3953 2.45292,6.6618 4.08594,9.7734 1.63303,3.1116 3.52816,6.0678 5.65821,8.8398 2.13004,2.7721 4.49543,5.3595 7.06835,7.7364 2.57293,2.3769 5.3528,4.5427 8.31446,6.4687 0.55796,0.3629 1.20087,0.6016 1.77148,0.9473 z" style="color:#000000;font-style:normal;font-variant:normal;font-weight:normal;font-stretch:normal;font-size:medium;line-height:normal;font-family:sans-serif;font-variant-ligatures:normal;font-variant-position:normal;font-variant-caps:normal;font-variant-numeric:normal;font-variant-alternates:normal;font-feature-settings:normal;text-indent:0;text-align:start;text-decoration:none;text-decoration-line:none;text-decoration-style:solid;text-decoration-color:#000000;letter-spacing:normal;word-spacing:normal;text-transform:none;writing-mode:lr-tb;direction:ltr;text-orientation:mixed;dominant-baseline:auto;baseline-shift:baseline;text-anchor:start;white-space:normal;shape-padding:0;clip-rule:nonzero;display:inline;overflow:visible;visibility:visible;opacity:1;isolation:auto;mix-blend-mode:normal;color-interpolation:sRGB;color-interpolation-filters:linearRGB;solid-color:#000000;solid-opacity:1;vector-effect:none;fill:#fe2c55;fill-opacity:1;fill-rule:nonzero;stroke:none;stroke-width:4.97335958;stroke-linecap:round;stroke-linejoin:round;stroke-miterlimit:0;stroke-dasharray:none;stroke-dashoffset:9.99999905;stroke-opacity:1;paint-order:fill markers stroke;color-rendering:auto;image-rendering:auto;shape-rendering:auto;text-rendering:auto;enable-background:accumulate"/> <path transform="matrix(0.26458333,0,0,0.26458333,0,-496.75002)" id="path877" d="m -272.12695,4283.4766 c 13.53691,12.93 31.90169,20.9296 51.97265,20.9296 39.26706,0 72.08752,-30.5035 74.70118,-68.9902 h 0.0469 v -0.6152 c 0.085,-1.434 0.14063,-2.8755 0.14063,-4.3301 0,-1.4545 -0.0556,-2.8962 -0.14063,-4.3301 v -80.1015 c 16.34158,12.3684 36.48802,20.0268 58.285156,20.9023 v -40.0625 c -3.999553,-0.2518 -7.86949,-0.9043 -11.617187,-1.8379 v 32.8086 c -2.724639,-0.1094 -5.422949,-0.3252 -8.091799,-0.6426 -2.66885,-0.3173 -5.30746,-0.7367 -7.91211,-1.2539 -2.60464,-0.5171 -5.17501,-1.1309 -7.70703,-1.8398 -2.53202,-0.7089 -5.02557,-1.5118 -7.47656,-2.4043 -2.45099,-0.8925 -4.85917,-1.8753 -7.2207,-2.9434 -2.36154,-1.068 -4.67774,-2.2215 -6.94141,-3.457 -2.26367,-1.2355 -4.47542,-2.5525 -6.63281,-3.9473 -2.1574,-1.3948 -4.26004,-2.868 -6.30274,-4.414 v 80.1015 c 0.0851,1.4339 0.14063,2.8756 0.14063,4.3301 0,1.4546 -0.0555,2.8961 -0.14063,4.3301 v 0.6152 h -0.0469 c -0.16336,2.4054 -0.44435,4.7797 -0.83789,7.1172 -0.39355,2.3376 -0.89959,4.6378 -1.51172,6.8965 -0.61213,2.2587 -1.33127,4.4757 -2.15039,6.6445 -0.81912,2.1689 -1.73745,4.2895 -2.75196,6.3574 -1.0145,2.068 -2.12398,4.083 -3.32226,6.0391 -1.19829,1.9561 -2.485,3.8542 -3.85547,5.6875 -1.37047,1.8333 -2.82442,3.6014 -4.35547,5.3008 -1.53105,1.6994 -3.14029,3.3302 -4.82031,4.8848 -1.68003,1.5545 -3.43065,3.0348 -5.24805,4.4335 -1.8174,1.3988 -3.70135,2.7154 -5.64453,3.9473 -1.94318,1.2319 -3.94656,2.3776 -6.00391,3.4317 -2.05735,1.054 -4.1682,2.0175 -6.32812,2.8828 -2.15992,0.8652 -4.36825,1.6333 -6.61914,2.2988 -2.25089,0.6654 -4.54474,1.227 -6.875,1.6816 -2.33026,0.4547 -4.69768,0.8024 -7.0957,1.0352 -2.39803,0.2328 -4.82706,0.3516 -7.28125,0.3516 -2.55855,0 -5.09043,-0.1301 -7.5879,-0.3829 -2.49746,-0.2527 -4.9596,-0.628 -7.38281,-1.1211 -2.4232,-0.493 -4.8068,-1.1033 -7.14258,-1.8242 -2.33577,-0.7208 -4.62421,-1.552 -6.85937,-2.4883 -2.23516,-0.9362 -4.41769,-1.9761 -6.53906,-3.1152 -1.66364,-0.8933 -3.25733,-1.8949 -4.84375,-2.9062 z" style="color:#000000;font-style:normal;font-variant:normal;font-weight:normal;font-stretch:normal;font-size:medium;line-height:normal;font-family:sans-serif;font-variant-ligatures:normal;font-variant-position:normal;font-variant-caps:normal;font-variant-numeric:normal;font-variant-alternates:normal;font-feature-settings:normal;text-indent:0;text-align:start;text-decoration:none;text-decoration-line:none;text-decoration-style:solid;text-decoration-color:#000000;letter-spacing:normal;word-spacing:normal;text-transform:none;writing-mode:lr-tb;direction:ltr;text-orientation:mixed;dominant-baseline:auto;baseline-shift:baseline;text-anchor:start;white-space:normal;shape-padding:0;clip-rule:nonzero;display:inline;overflow:visible;visibility:visible;opacity:1;isolation:auto;mix-blend-mode:normal;color-interpolation:sRGB;color-interpolation-filters:linearRGB;solid-color:#000000;solid-opacity:1;vector-effect:none;fill:#fe2c55;fill-opacity:1;fill-rule:nonzero;stroke:none;stroke-width:4.97335958;stroke-linecap:round;stroke-linejoin:round;stroke-miterlimit:0;stroke-dasharray:none;stroke-dashoffset:9.99999905;stroke-opacity:1;paint-order:fill markers stroke;color-rendering:auto;image-rendering:auto;shape-rendering:auto;text-rendering:auto;enable-background:accumulate"/> <path transform="matrix(0.26458333,0,0,0.26458333,0,-496.75002)" id="path875" d="m -247.30469,4251.7246 c -4.79472,-5.8264 -7.74414,-13.1514 -7.74414,-21.2539 0,-18.7892 15.19987,-33.9355 34.89453,-33.9355 3.79612,0 7.42027,0.5721 10.80469,1.6152 v -40.8281 c -3.53291,-0.5148 -7.13923,-0.7891 -10.80469,-0.7891 -0.27397,0 -0.53916,0.038 -0.8125,0.041 v 32.4844 c -1.6922,-0.5215 -3.44444,-0.9258 -5.24804,-1.1992 -1.80361,-0.2734 -3.65859,-0.416 -5.55664,-0.416 -2.46184,0 -4.85384,0.2366 -7.1543,0.6875 -2.30046,0.4508 -4.5082,1.1158 -6.60547,1.9726 -2.09727,0.8568 -4.08328,1.9053 -5.93555,3.1231 -1.85227,1.2177 -3.57127,2.6048 -5.13672,4.1386 -1.56545,1.5338 -2.97803,3.2146 -4.21484,5.0196 -1.23681,1.8049 -2.2977,3.7345 -3.16406,5.7656 -0.86636,2.0311 -1.5381,4.1626 -1.99219,6.375 -0.45409,2.2123 -0.69141,4.5049 -0.69141,6.8535 0,2.3487 0.23732,4.641 0.69141,6.8535 0.45409,2.2125 1.12583,4.3456 1.99219,6.377 0.86636,2.0314 1.92725,3.9603 3.16406,5.7656 1.23681,1.8053 2.64939,3.4873 4.21484,5.0215 1.56545,1.5342 3.28445,2.9206 5.13672,4.1387 1.29879,0.8541 2.7398,1.5095 4.16211,2.1894 z" style="color:#000000;font-style:normal;font-variant:normal;font-weight:normal;font-stretch:normal;font-size:medium;line-height:normal;font-family:sans-serif;font-variant-ligatures:normal;font-variant-position:normal;font-variant-caps:normal;font-variant-numeric:normal;font-variant-alternates:normal;font-feature-settings:normal;text-indent:0;text-align:start;text-decoration:none;text-decoration-line:none;text-decoration-style:solid;text-decoration-color:#000000;letter-spacing:normal;word-spacing:normal;text-transform:none;writing-mode:lr-tb;direction:ltr;text-orientation:mixed;dominant-baseline:auto;baseline-shift:baseline;text-anchor:start;white-space:normal;shape-padding:0;clip-rule:nonzero;display:inline;overflow:visible;visibility:visible;opacity:1;isolation:auto;mix-blend-mode:normal;color-interpolation:sRGB;color-interpolation-filters:linearRGB;solid-color:#000000;solid-opacity:1;vector-effect:none;fill:#fe2c55;fill-opacity:1;fill-rule:nonzero;stroke:none;stroke-width:4.97335958;stroke-linecap:round;stroke-linejoin:round;stroke-miterlimit:0;stroke-dasharray:none;stroke-dashoffset:9.99999905;stroke-opacity:1;paint-order:fill markers stroke;color-rendering:auto;image-rendering:auto;shape-rendering:auto;text-rendering:auto;enable-background:accumulate"/> <path transform="matrix(0.26458333,0,0,0.26458333,0,-496.75002)" id="path848" d="m -247.30469,4251.7246 c -1.42231,-0.6799 -2.86332,-1.3353 -4.16211,-2.1894 -1.85227,-1.2181 -3.57127,-2.6045 -5.13672,-4.1387 -1.56545,-1.5342 -2.97803,-3.2162 -4.21484,-5.0215 -1.23681,-1.8053 -2.2977,-3.7342 -3.16406,-5.7656 -0.86636,-2.0314 -1.5381,-4.1645 -1.99219,-6.377 -0.45409,-2.2125 -0.69141,-4.5048 -0.69141,-6.8535 0,-2.3486 0.23732,-4.6412 0.69141,-6.8535 0.45409,-2.2124 1.12583,-4.3439 1.99219,-6.375 0.86636,-2.0311 1.92725,-3.9607 3.16406,-5.7656 1.23681,-1.805 2.64939,-3.4858 4.21484,-5.0196 1.56545,-1.5338 3.28445,-2.9209 5.13672,-4.1386 1.85227,-1.2178 3.83828,-2.2663 5.93555,-3.1231 2.09727,-0.8568 4.30501,-1.5218 6.60547,-1.9726 2.30046,-0.4509 4.69246,-0.6875 7.1543,-0.6875 1.89805,0 3.75303,0.1426 5.55664,0.416 1.8036,0.2734 3.55584,0.6777 5.24804,1.1992 v -32.4844 c -40.56883,0.4396 -74.08593,33.3805 -74.08593,73.8965 0,20.7905 8.8528,39.5638 22.92578,53.0059 1.58642,1.0113 3.18011,2.0129 4.84375,2.9062 2.12137,1.1391 4.3039,2.179 6.53906,3.1152 2.23516,0.9363 4.5236,1.7675 6.85937,2.4883 2.33578,0.7209 4.71938,1.3312 7.14258,1.8242 2.42321,0.4931 4.88535,0.8684 7.38281,1.1211 2.49747,0.2528 5.02935,0.3829 7.5879,0.3829 2.45419,0 4.88322,-0.1188 7.28125,-0.3516 2.39802,-0.2328 4.76544,-0.5805 7.0957,-1.0352 2.33026,-0.4546 4.62411,-1.0162 6.875,-1.6816 2.25089,-0.6655 4.45922,-1.4336 6.61914,-2.2988 2.15992,-0.8653 4.27077,-1.8288 6.32812,-2.8828 2.05735,-1.0541 4.06073,-2.1998 6.00391,-3.4317 1.94318,-1.2319 3.82713,-2.5485 5.64453,-3.9473 1.8174,-1.3987 3.56802,-2.879 5.24805,-4.4335 1.68002,-1.5546 3.28926,-3.1854 4.82031,-4.8848 1.53105,-1.6994 2.985,-3.4675 4.35547,-5.3008 1.37047,-1.8333 2.65718,-3.7314 3.85547,-5.6875 1.19828,-1.9561 2.30776,-3.9711 3.32226,-6.0391 1.01451,-2.0679 1.93284,-4.1885 2.75196,-6.3574 0.81912,-2.1688 1.53826,-4.3858 2.15039,-6.6445 0.61213,-2.2587 1.11817,-4.5589 1.51172,-6.8965 0.39354,-2.3375 0.67453,-4.7118 0.83789,-7.1172 h 0.0469 v -0.6152 c 0.0851,-1.434 0.14063,-2.8755 0.14063,-4.3301 0,-1.4545 -0.0555,-2.8962 -0.14063,-4.3301 v -80.1015 c 2.0427,1.546 4.14534,3.0192 6.30274,4.414 2.15739,1.3948 4.36914,2.7118 6.63281,3.9473 2.26367,1.2355 4.57987,2.389 6.94141,3.457 2.36153,1.0681 4.76971,2.0509 7.2207,2.9434 2.45099,0.8925 4.94454,1.6954 7.47656,2.4043 2.53202,0.7089 5.10239,1.3227 7.70703,1.8398 2.60465,0.5172 5.24326,0.9366 7.91211,1.2539 2.66885,0.3174 5.36716,0.5332 8.091799,0.6426 v -32.8086 c -11.278099,-2.8095 -21.181199,-8.6194 -29.035159,-16.4277 -0.57061,-0.3457 -1.21352,-0.5844 -1.77148,-0.9473 -2.96166,-1.926 -5.74153,-4.0918 -8.31446,-6.4687 -2.57292,-2.3769 -4.93831,-4.9643 -7.06835,-7.7364 -2.13005,-2.772 -4.02518,-5.7282 -5.65821,-8.8398 -1.63302,-3.1116 -3.00407,-6.3781 -4.08594,-9.7734 -0.52289,-1.6411 -0.75195,-3.398 -1.13671,-5.0957 h -30.04102 c 0.0896,2.0275 0.23244,4.0418 0.44141,6.0371 v 60.6328 28.6582 62.375 6.0293 c -1.52584,17.3681 -16.11733,30.9277 -34.7461,30.9277 -11.20167,0 -20.82648,-5.0029 -27.15039,-12.6875 z" style="color:#000000;font-style:normal;font-variant:normal;font-weight:normal;font-stretch:normal;font-size:medium;line-height:normal;font-family:sans-serif;font-variant-ligatures:normal;font-variant-position:normal;font-variant-caps:normal;font-variant-numeric:normal;font-variant-alternates:normal;font-feature-settings:normal;text-indent:0;text-align:start;text-decoration:none;text-decoration-line:none;text-decoration-style:solid;text-decoration-color:#000000;letter-spacing:normal;word-spacing:normal;text-transform:none;writing-mode:lr-tb;direction:ltr;text-orientation:mixed;dominant-baseline:auto;baseline-shift:baseline;text-anchor:start;white-space:normal;shape-padding:0;clip-rule:nonzero;display:inline;overflow:visible;visibility:visible;opacity:1;isolation:auto;mix-blend-mode:normal;color-interpolation:sRGB;color-interpolation-filters:linearRGB;solid-color:#000000;solid-opacity:1;vector-effect:none;fill:#ffffff;fill-opacity:1;fill-rule:nonzero;stroke:none;stroke-width:4.97335958;stroke-linecap:round;stroke-linejoin:round;stroke-miterlimit:0;stroke-dasharray:none;stroke-dashoffset:9.99999905;stroke-opacity:1;paint-order:fill markers stroke;color-rendering:auto;image-rendering:auto;shape-rendering:auto;text-rendering:auto;enable-background:accumulate"/> </g> </g> </svg>